<svg width="121" height="121" viewBox="0 0 121 121" fill="none" xmlns="http://www.w3.org/2000/svg">
<g filter="url(#filter0_d)">
<mask id="mask0" mask-type="alpha" maskUnits="userSpaceOnUse" x="60" y="8" width="53" height="105">
<rect x="61" y="8.5" width="51.4999" height="104" fill="#C4C4C4" stroke="#08AEAE"/>
</mask>
<g mask="url(#mask0)">
<circle cx="60.4999" cy="60.4999" r="49.4999" stroke="#08AEAE" stroke-width="6"/>
</g>
<mask id="mask1" mask-type="alpha" maskUnits="userSpaceOnUse" x="8" y="8" width="53" height="105">
<path d="M8 8H60.4999V113H8V8Z" fill="#C4C4C4"/>
</mask>
<g mask="url(#mask1)">
<circle cx="60.4999" cy="60.4999" r="49.4999" stroke="#EA545F" stroke-width="6"/>
</g>
<mask id="mask2" mask-type="alpha" maskUnits="userSpaceOnUse" x="60" y="25" width="36" height="71">
<rect x="60.4998" y="25.4999" width="34.9999" height="69.9999" fill="#C4C4C4"/>
</mask>
<g mask="url(#mask2)">
<path d="M92.9724 58.7007C92.9724 58.9387 92.8534 60.6047 92.6154 63.6987H44.1825C45.0551 67.6652 47.1178 70.7991 50.3705 73.0997C53.6231 75.4002 57.6691 76.5507 62.5084 76.5507C65.8404 76.5507 68.7759 76.0747 71.3144 75.1227C73.9324 74.0912 76.352 72.5047 78.5734 70.3627L88.4504 81.0727C82.421 87.9746 73.615 91.4256 62.0324 91.4256C54.8131 91.4256 48.4268 90.0372 42.8735 87.2606C37.3201 84.4047 33.0362 80.4777 30.0215 75.4797C27.0068 70.4817 25.4995 64.8092 25.4995 58.4627C25.4995 52.1954 26.9672 46.5627 29.9025 41.5647C32.9172 36.4874 37.0028 32.5604 42.1595 29.7837C47.3955 26.9277 53.2265 25.4997 59.6525 25.4997C65.9199 25.4997 71.592 26.8484 76.6694 29.5457C81.7469 32.2431 85.7134 36.1304 88.5694 41.2077C91.5049 46.2057 92.9724 52.0367 92.9724 58.7007ZM59.7715 39.5417C55.5668 39.5417 52.0365 40.7317 49.1805 43.1117C46.3245 45.4917 44.5791 48.7444 43.9445 52.8697H75.4794C74.8449 48.8237 73.0994 45.6107 70.2434 43.2307C67.3874 40.7714 63.8969 39.5417 59.7715 39.5417Z" fill="#EA545F"/>
</g>
<mask id="mask3" mask-type="alpha" maskUnits="userSpaceOnUse" x="25" y="25" width="36" height="71">
<rect x="25.4998" y="25.5001" width="34.9999" height="69.9999" fill="#C4C4C4"/>
</mask>
<g mask="url(#mask3)">
<path d="M92.9726 58.701C92.9726 58.939 92.8536 60.605 92.6156 63.699H44.1827C45.0554 67.6656 47.1181 70.7995 50.3707 73.1C53.6234 75.4005 57.6694 76.551 62.5087 76.551C65.8407 76.551 68.7761 76.075 71.3147 75.123C73.9327 74.0915 76.3522 72.505 78.5737 70.363L88.4506 81.073C82.4212 87.975 73.6152 91.426 62.0327 91.426C54.8134 91.426 48.4271 90.0375 42.8737 87.261C37.3204 84.405 33.0364 80.478 30.0217 75.48C27.0071 70.482 25.4998 64.8096 25.4998 58.463C25.4998 52.1957 26.9674 46.563 29.9027 41.565C32.9174 36.4877 37.0031 32.5607 42.1597 29.7841C47.3957 26.9281 53.2267 25.5001 59.6527 25.5001C65.9201 25.5001 71.5922 26.8487 76.6697 29.5461C81.7471 32.2434 85.7137 36.1307 88.5697 41.208C91.5051 46.206 92.9726 52.037 92.9726 58.701ZM59.7717 39.5421C55.567 39.5421 52.0367 40.7321 49.1807 43.112C46.3247 45.492 44.5794 48.7447 43.9447 52.87H75.4797C74.8451 48.824 73.0997 45.611 70.2437 43.231C67.3877 40.7717 63.8971 39.5421 59.7717 39.5421Z" fill="#08AEAE"/>
</g>
</g>
<defs>
<filter id="filter0_d" x="0" y="0" width="121" height="121" filterUnits="userSpaceOnUse" color-interpolation-filters="sRGB">
<feFlood flood-opacity="0" result="BackgroundImageFix"/>
<feColorMatrix in="SourceAlpha" type="matrix" values="0 0 0 0 0 0 0 0 0 0 0 0 0 0 0 0 0 0 127 0"/>
<feOffset/>
<feGaussianBlur stdDeviation="4"/>
<feColorMatrix type="matrix" values="0 0 0 0 0 0 0 0 0 0 0 0 0 0 0 0 0 0 0.2 0"/>
<feBlend mode="normal" in2="BackgroundImageFix" result="effect1_dropShadow"/>
<feBlend mode="normal" in="SourceGraphic" in2="effect1_dropShadow" result="shape"/>
</filter>
</defs>
</svg>
