<svg width="188" height="49" viewBox="0 0 188 49" fill="none" xmlns="http://www.w3.org/2000/svg">
<path d="M108.88 24.44C110.48 24.9467 111.733 25.8 112.64 27C113.547 28.1733 114 29.6267 114 31.36C114 33.8133 113.04 35.7067 111.12 37.04C109.227 38.3467 106.453 39 102.8 39H88.32V11H102C105.413 11 108.027 11.6533 109.84 12.96C111.68 14.2667 112.6 16.04 112.6 18.28C112.6 19.64 112.267 20.8533 111.6 21.92C110.96 22.9867 110.053 23.8267 108.88 24.44ZM94.76 15.88V22.48H101.2C102.8 22.48 104.013 22.2 104.84 21.64C105.667 21.08 106.08 20.2533 106.08 19.16C106.08 18.0667 105.667 17.2533 104.84 16.72C104.013 16.16 102.8 15.88 101.2 15.88H94.76ZM102.32 34.12C104.027 34.12 105.307 33.84 106.16 33.28C107.04 32.72 107.48 31.8533 107.48 30.68C107.48 28.36 105.76 27.2 102.32 27.2H94.76V34.12H102.32ZM126.306 39.32C124.039 39.32 121.999 38.8533 120.186 37.92C118.399 36.96 116.999 35.64 115.986 33.96C114.973 32.28 114.466 30.3733 114.466 28.24C114.466 26.1067 114.973 24.2 115.986 22.52C116.999 20.84 118.399 19.5333 120.186 18.6C121.999 17.64 124.039 17.16 126.306 17.16C128.573 17.16 130.599 17.64 132.386 18.6C134.173 19.5333 135.573 20.84 136.586 22.52C137.599 24.2 138.106 26.1067 138.106 28.24C138.106 30.3733 137.599 32.28 136.586 33.96C135.573 35.64 134.173 36.96 132.386 37.92C130.599 38.8533 128.573 39.32 126.306 39.32ZM126.306 34.2C127.906 34.2 129.213 33.6667 130.226 32.6C131.266 31.5067 131.786 30.0533 131.786 28.24C131.786 26.4267 131.266 24.9867 130.226 23.92C129.213 22.8267 127.906 22.28 126.306 22.28C124.706 22.28 123.386 22.8267 122.346 23.92C121.306 24.9867 120.786 26.4267 120.786 28.24C120.786 30.0533 121.306 31.5067 122.346 32.6C123.386 33.6667 124.706 34.2 126.306 34.2ZM150.117 39.32C147.85 39.32 145.81 38.8533 143.997 37.92C142.21 36.96 140.81 35.64 139.797 33.96C138.784 32.28 138.277 30.3733 138.277 28.24C138.277 26.1067 138.784 24.2 139.797 22.52C140.81 20.84 142.21 19.5333 143.997 18.6C145.81 17.64 147.85 17.16 150.117 17.16C152.384 17.16 154.41 17.64 156.197 18.6C157.984 19.5333 159.384 20.84 160.397 22.52C161.41 24.2 161.917 26.1067 161.917 28.24C161.917 30.3733 161.41 32.28 160.397 33.96C159.384 35.64 157.984 36.96 156.197 37.92C154.41 38.8533 152.384 39.32 150.117 39.32ZM150.117 34.2C151.717 34.2 153.024 33.6667 154.037 32.6C155.077 31.5067 155.597 30.0533 155.597 28.24C155.597 26.4267 155.077 24.9867 154.037 23.92C153.024 22.8267 151.717 22.28 150.117 22.28C148.517 22.28 147.197 22.8267 146.157 23.92C145.117 24.9867 144.597 26.4267 144.597 28.24C144.597 30.0533 145.117 31.5067 146.157 32.6C147.197 33.6667 148.517 34.2 150.117 34.2ZM172.928 30.56L169.928 33.52V39H163.688V9.32H169.928V26.12L179.048 17.48H186.488L177.528 26.6L187.288 39H179.728L172.928 30.56Z" fill="#EA545F"/>
<mask id="mask0" mask-type="alpha" maskUnits="userSpaceOnUse" x="77" y="20" width="10" height="20">
<rect x="77" y="20" width="10" height="20" fill="#C4C4C4"/>
</mask>
<g mask="url(#mask0)">
<path d="M86.366 29.922C86.366 29.99 86.332 30.466 86.264 31.35H72.426C72.6753 32.4833 73.2647 33.3787 74.194 34.036C75.1233 34.6933 76.2793 35.022 77.662 35.022C78.614 35.022 79.4527 34.886 80.178 34.614C80.926 34.3193 81.6173 33.866 82.252 33.254L85.074 36.314C83.3513 38.286 80.8353 39.272 77.526 39.272C75.4633 39.272 73.6387 38.8753 72.052 38.082C70.4653 37.266 69.2413 36.144 68.38 34.716C67.5187 33.288 67.088 31.6673 67.088 29.854C67.088 28.0633 67.5073 26.454 68.346 25.026C69.2073 23.5753 70.3747 22.4533 71.848 21.66C73.344 20.844 75.01 20.436 76.846 20.436C78.6367 20.436 80.2573 20.8213 81.708 21.592C83.1587 22.3627 84.292 23.4733 85.108 24.924C85.9467 26.352 86.366 28.018 86.366 29.922ZM76.88 24.448C75.6787 24.448 74.67 24.788 73.854 25.468C73.038 26.148 72.5393 27.0773 72.358 28.256H81.368C81.1867 27.1 80.688 26.182 79.872 25.502C79.056 24.7993 78.0587 24.448 76.88 24.448Z" fill="#EA545F"/>
</g>
<mask id="mask1" mask-type="alpha" maskUnits="userSpaceOnUse" x="67" y="20" width="10" height="20">
<rect x="67" y="20" width="10" height="20" fill="#C4C4C4"/>
</mask>
<g mask="url(#mask1)">
<path d="M86.366 29.922C86.366 29.99 86.332 30.466 86.264 31.35H72.426C72.6753 32.4833 73.2647 33.3787 74.194 34.036C75.1233 34.6933 76.2793 35.022 77.662 35.022C78.614 35.022 79.4527 34.886 80.178 34.614C80.926 34.3193 81.6173 33.866 82.252 33.254L85.074 36.314C83.3513 38.286 80.8353 39.272 77.526 39.272C75.4633 39.272 73.6387 38.8753 72.052 38.082C70.4653 37.266 69.2413 36.144 68.38 34.716C67.5187 33.288 67.088 31.6673 67.088 29.854C67.088 28.0633 67.5073 26.454 68.346 25.026C69.2073 23.5753 70.3747 22.4533 71.848 21.66C73.344 20.844 75.01 20.436 76.846 20.436C78.6367 20.436 80.2573 20.8213 81.708 21.592C83.1587 22.3627 84.292 23.4733 85.108 24.924C85.9467 26.352 86.366 28.018 86.366 29.922ZM76.88 24.448C75.6787 24.448 74.67 24.788 73.854 25.468C73.038 26.148 72.5393 27.0773 72.358 28.256H81.368C81.1867 27.1 80.688 26.182 79.872 25.502C79.056 24.7993 78.0587 24.448 76.88 24.448Z" fill="#08AEAE"/>
</g>
<path d="M14.246 38.116C13.7247 38.5013 13.0787 38.796 12.308 39C11.56 39.1813 10.7667 39.272 9.928 39.272C7.752 39.272 6.06333 38.7167 4.862 37.606C3.68333 36.4953 3.094 34.8633 3.094 32.71V25.196H0.272V21.116H3.094V16.662H8.398V21.116H12.954V25.196H8.398V32.642C8.398 33.4127 8.59067 34.0133 8.976 34.444C9.384 34.852 9.95067 35.056 10.676 35.056C11.5147 35.056 12.2287 34.8293 12.818 34.376L14.246 38.116ZM20.2494 23.122C20.8841 22.238 21.7341 21.5693 22.7994 21.116C23.8874 20.6627 25.1341 20.436 26.5394 20.436V25.332C25.9501 25.2867 25.5534 25.264 25.3494 25.264C23.8307 25.264 22.6407 25.6947 21.7794 26.556C20.9181 27.3947 20.4874 28.664 20.4874 30.364V39H15.1834V20.708H20.2494V23.122ZM34.9315 20.436C37.7649 20.436 39.9409 21.116 41.4595 22.476C42.9782 23.8133 43.7375 25.842 43.7375 28.562V39H38.7735V36.722C37.7762 38.422 35.9175 39.272 33.1975 39.272C31.7922 39.272 30.5682 39.034 29.5255 38.558C28.5055 38.082 27.7235 37.4247 27.1795 36.586C26.6355 35.7473 26.3635 34.7953 26.3635 33.73C26.3635 32.03 26.9982 30.6927 28.2675 29.718C29.5595 28.7433 31.5429 28.256 34.2175 28.256H38.4335C38.4335 27.1 38.0822 26.216 37.3795 25.604C36.6769 24.9693 35.6229 24.652 34.2175 24.652C33.2429 24.652 32.2795 24.8107 31.3275 25.128C30.3982 25.4227 29.6049 25.8307 28.9475 26.352L27.0435 22.646C28.0409 21.9433 29.2309 21.3993 30.6135 21.014C32.0189 20.6287 33.4582 20.436 34.9315 20.436ZM34.5235 35.702C35.4302 35.702 36.2349 35.498 36.9375 35.09C37.6402 34.6593 38.1389 34.036 38.4335 33.22V31.35H34.7955C32.6195 31.35 31.5315 32.064 31.5315 33.492C31.5315 34.172 31.7922 34.716 32.3135 35.124C32.8575 35.5093 33.5942 35.702 34.5235 35.702ZM65.3291 13.772V39H60.2631V36.892C58.9485 38.4787 57.0445 39.272 54.5511 39.272C52.8285 39.272 51.2645 38.8867 49.8591 38.116C48.4765 37.3453 47.3885 36.246 46.5951 34.818C45.8018 33.39 45.4051 31.7353 45.4051 29.854C45.4051 27.9727 45.8018 26.318 46.5951 24.89C47.3885 23.462 48.4765 22.3627 49.8591 21.592C51.2645 20.8213 52.8285 20.436 54.5511 20.436C56.8858 20.436 58.7105 21.1727 60.0251 22.646V13.772H65.3291ZM55.4691 34.92C56.8065 34.92 57.9171 34.4667 58.8011 33.56C59.6851 32.6307 60.1271 31.3953 60.1271 29.854C60.1271 28.3127 59.6851 27.0887 58.8011 26.182C57.9171 25.2527 56.8065 24.788 55.4691 24.788C54.1091 24.788 52.9871 25.2527 52.1031 26.182C51.2191 27.0887 50.7771 28.3127 50.7771 29.854C50.7771 31.3953 51.2191 32.6307 52.1031 33.56C52.9871 34.4667 54.1091 34.92 55.4691 34.92Z" fill="#08AEAE"/>
</svg>
